HIERARCHY
ROOT hip
{
	OFFSET 0.000000 0.000000 0.000000 
	CHANNELS 6 Xposition Yposition Zposition Xrotation Zrotation Yrotation
	JOINT abdomen
	{
		OFFSET 0.000000 3.402643 0.000000 
		CHANNELS 3 Xrotation Zrotation Yrotation
		JOINT chest
		{
			OFFSET 0.000000 8.438565 -0.680529 
			CHANNELS 3 Xrotation Zrotation Yrotation
			JOINT neck
			{
				OFFSET 0.000000 10.207942 -0.272212 
				CHANNELS 3 Xrotation Zrotation Yrotation
				JOINT head
				{
					OFFSET 0.000000 3.130431 0.000000 
					CHANNELS 3 Xrotation Zrotation Yrotation
					End Site
					{
						OFFSET 0.000000 3.130435 0.000000 
					}
				}
			}
			JOINT lCollar
			{
				OFFSET 3.470700 6.669187 -0.816635 
				CHANNELS 3 Yrotation Zrotation Xrotation
				JOINT lShldr
				{
					OFFSET 3.198488 0.000000 0.000000 
					CHANNELS 3 Zrotation Yrotation Xrotation
					JOINT lForeArm
					{
						OFFSET 10.139888 0.000000 0.000000 
						CHANNELS 3 Yrotation Zrotation Xrotation
						JOINT lHand
						{
							OFFSET 8.370511 0.000000 0.000000 
							CHANNELS 3 Zrotation Yrotation Xrotation
							End Site
							{
								OFFSET 4.083176 0.000000 0.000000 
							}
						}
					}
				}
			}
			JOINT rCollar
			{
				OFFSET -3.470700 6.669187 -0.816635 
				CHANNELS 3 Yrotation Zrotation Xrotation
				JOINT rShldr
				{
					OFFSET -3.198488 0.000000 0.000000 
					CHANNELS 3 Zrotation Yrotation Xrotation
					JOINT rForeArm
					{
						OFFSET -10.139888 0.000000 0.000000 
						CHANNELS 3 Yrotation Zrotation Xrotation
						JOINT rHand
						{
							OFFSET -8.370511 0.000000 0.000000 
							CHANNELS 3 Zrotation Yrotation Xrotation
							End Site
							{
								OFFSET -4.083176 0.000000 0.000000 
							}
						}
					}
				}
			}
		}
	}
	JOINT lThigh
	{
		OFFSET 5.308129 -1.633274 1.361059 
		CHANNELS 3 Xrotation Zrotation Yrotation
		JOINT lShin
		{
			OFFSET -2.041588 -20.007561 0.000000 
			CHANNELS 3 Xrotation Zrotation Yrotation
			JOINT lFoot
			{
				OFFSET 0.000000 -19.190928 -1.224953 
				CHANNELS 3 Xrotation Yrotation Zrotation
				End Site
				{
					OFFSET 0.000000 -2.449906 4.627600 
				}
			}
		}
	}
	JOINT rThigh
	{
		OFFSET -5.308129 -1.633274 1.361059 
		CHANNELS 3 Xrotation Zrotation Yrotation
		JOINT rShin
		{
			OFFSET 2.041588 -20.007561 0.000000 
			CHANNELS 3 Xrotation Zrotation Yrotation
			JOINT rFoot
			{
				OFFSET 0.000000 -19.190928 -1.224953 
				CHANNELS 3 Xrotation Yrotation Zrotation
				End Site
				{
					OFFSET 0.000000 -2.449906 4.627600 
				}
			}
		}
	}
}
MOTION
Frames: 15
Frame Time: 0.033333
-0.834577 52.699940 2.439858 -4.404297 0.869141 -16.415867 46.083984 -6.523438 -9.365235 -29.365234 9.599608 0.978191 51.054684 8.105469 2.470703 -69.150391 -6.582031 7.304688 1.992188 -2.001953 0.000341 -84.755859 10.693359 11.486188 -27.724609 -2.509766 -1.005432 19.111328 48.193359 18.239702 -2.001953 1.992188 0.000000 78.320313 -17.187498 13.535156 41.230469 2.011719 -1.435547 -26.835936 -50.312500 26.262018 5.239326 -1.892294 2.051190 11.610058 -5.763084 -0.951527 -2.817945 4.290912 -2.268025 -3.730487 -11.613855 -18.283211 46.803139 3.365353 3.671101 20.174316 -13.595668 0.496170 
-1.644924 52.592541 4.839269 -4.238281 1.044922 -14.667790 46.992188 -3.935547 -11.787111 -30.800779 10.488281 0.187324 51.054684 8.105469 2.470703 -68.037109 -6.220703 10.008705 1.992188 -2.001953 0.000341 -81.259766 7.539063 16.427065 -30.195314 -2.558594 -1.142578 21.181641 48.242188 18.356894 -2.001953 1.992188 0.000000 79.472656 -21.962893 12.271739 41.396484 1.933594 -1.601892 -26.298828 -50.078129 25.576172 8.850180 -1.824039 1.054093 9.649492 -5.810154 -0.645072 -3.375065 3.435253 -1.685696 -7.167031 -11.246071 -19.207336 40.948536 3.768918 3.342606 11.714922 -10.915081 -1.095748 
-2.503732 52.426617 7.319604 -4.238281 1.210938 -12.958986 47.656250 -2.148437 -13.828123 -31.503906 11.552733 -0.330075 51.054684 8.105469 2.470703 -67.080078 -5.634765 11.640626 1.992188 -2.001953 0.000341 -78.750000 4.306641 18.848392 -34.062500 -2.509766 -1.337891 22.011719 48.398438 17.683084 -2.001953 1.992188 0.000000 80.283203 -25.966795 9.868772 41.572266 1.923828 -1.601890 -25.781250 -50.117188 25.217117 12.467477 -1.259185 0.269484 8.430535 -5.837253 -0.635347 -4.068626 2.241260 -1.270564 -10.573694 -10.609740 -20.191319 35.493690 4.091332 2.662229 4.348429 -7.340590 -2.461912 
-3.483640 52.095474 10.002283 -4.052734 1.210938 -11.513466 47.900394 -2.333985 -15.527740 -30.947262 12.773438 -0.769326 51.054684 8.105469 2.470703 -67.324219 -4.755859 12.118332 1.992188 -2.001953 0.000341 -76.835938 -0.146484 18.789064 -36.699223 -2.382813 -1.621094 22.910156 47.929684 18.376389 -2.001953 1.992188 0.000000 80.644531 -29.267580 7.216797 41.767578 1.933594 -1.621094 -26.425777 -50.937500 25.744371 15.556846 -0.253330 -0.710032 7.893310 -5.817836 -0.508542 -4.142851 1.218277 -0.980024 -13.574172 -10.078110 -20.679440 30.387094 4.354795 2.459510 -0.851811 -4.932086 -2.793127 
-4.559361 51.563690 12.841978 -3.876953 1.210938 -10.312499 48.125000 -3.261719 -16.572821 -29.851095 14.168921 -1.082261 51.054684 8.105469 2.470703 -68.730469 -4.599609 11.718750 1.992188 -2.001953 0.000341 -74.599609 -5.185547 16.884769 -38.984379 -2.412109 -1.562500 23.427732 47.167965 19.580078 -2.001953 1.992188 0.000000 80.761719 -32.294926 3.813142 42.109375 1.923828 -1.631187 -27.402342 -52.089844 26.759874 18.263754 0.918031 -0.416463 8.955676 -5.758308 -1.028352 -5.309752 -0.083292 -0.748387 -16.160555 -9.705192 -20.150438 25.649965 4.579126 2.273178 -2.942470 -3.470988 -2.294956 
-5.654985 50.929939 15.710034 -3.525390 0.869141 -9.374850 47.988281 -3.525390 -17.109379 -29.296873 14.511719 -1.296381 51.054684 8.105469 2.470703 -70.410156 -5.253906 11.259766 1.992188 -2.001953 0.000341 -73.496094 -9.658203 14.783518 -40.917969 -2.294922 -1.474609 24.619141 46.220699 21.328123 -2.001953 1.992188 0.000000 80.859375 -34.375000 1.728516 41.943363 1.933594 -1.621423 -28.437502 -52.509769 27.744141 20.166916 2.128865 -0.725792 11.438103 -5.694754 -1.242871 -5.937623 -0.702627 -0.884343 -18.942457 -9.469790 -19.826860 21.248917 4.775116 1.950981 -3.101119 -2.928159 -2.004107 
-6.767296 50.200569 18.602394 -3.173828 0.341797 -9.160156 47.587891 -2.011719 -16.689796 -29.492189 14.169923 -1.347656 51.054684 8.105469 2.470703 -71.572266 -6.113281 11.552734 1.992188 -2.001953 0.000341 -72.958984 -12.822266 12.107208 -42.851563 -2.138672 -1.698854 24.521484 45.273438 22.011719 -2.001953 1.992188 0.000000 80.878906 -35.742184 0.648594 42.109375 1.923828 -1.631187 -29.335939 -52.871094 29.130859 22.321487 3.515609 -0.572009 13.726588 -5.636037 -1.458167 -5.097060 -1.147403 -1.036272 -20.755447 -8.822388 -19.087492 17.520866 4.890227 1.478723 -3.637018 -2.668630 -1.892508 
-7.893077 49.460644 21.515347 -2.832031 -0.722656 -9.316529 47.060547 0.058594 -15.908200 -29.863281 13.115233 -1.423565 51.054684 8.105469 2.470703 -71.962883 -6.386719 12.948133 1.992188 -2.001953 0.000341 -72.734375 -14.218749 9.394530 -44.970703 -2.080078 -1.621094 25.009766 44.619137 22.099607 -2.001953 1.992188 0.000000 80.576172 -36.787113 0.912121 42.285156 1.923828 -1.640625 -30.205074 -53.017578 30.539078 24.714172 4.902205 -0.180532 14.617237 -5.617303 -1.534340 -2.230725 -1.061292 -1.225960 -21.624905 -8.149749 -18.230976 15.746240 4.952145 1.467040 -7.611214 -2.181763 -2.133427 
-9.029110 48.668251 24.444857 -2.470703 -1.787122 -9.619374 46.425777 2.304688 -15.058595 -30.419924 12.060548 -1.533203 51.054684 8.105469 2.470703 -72.324219 -6.337891 14.735252 1.992188 -2.001953 0.000341 -72.734375 -12.412108 6.542968 -47.597656 -2.021484 -1.903952 24.570313 43.134769 20.426600 -2.001953 1.992188 0.000000 79.785156 -37.197266 1.777344 42.460938 1.914062 -1.650391 -30.839844 -53.027344 31.777346 29.723217 5.996069 0.939842 10.729854 -5.225340 -1.125136 2.499989 -0.183961 1.250343 -23.247175 -7.379881 -16.699062 23.872284 4.749471 1.520362 -8.041297 -4.202021 -1.404917 
-10.172168 48.431862 27.387199 -1.943359 -2.646484 -10.137169 46.191406 4.052734 -13.994142 -30.800779 11.005859 -1.580167 51.054684 8.105469 2.470703 -72.441406 -5.820313 15.791018 1.992188 -2.001953 0.000341 -73.076172 -7.949219 3.818359 -49.882816 -1.972656 -2.001953 23.857422 41.835941 17.477219 -2.001953 1.992188 0.000000 79.892578 -37.197266 1.947222 42.460938 1.914062 -1.650391 -30.986328 -52.666019 31.554737 27.801876 7.090257 2.258154 16.180525 -5.167774 -1.577640 16.703999 1.806876 4.680625 -22.885151 -5.915251 -15.690371 28.440712 4.515493 2.282462 -6.958774 -6.540056 -1.302224 
-11.319032 48.661938 30.338226 -1.611328 -3.691406 -10.654926 46.210938 4.521484 -12.772667 -31.162109 10.312501 -1.630859 51.054684 8.105469 2.470703 -72.763672 -5.615234 15.751000 1.992188 -2.001953 0.000341 -74.736328 -3.701171 1.884137 -50.410160 -1.953125 -2.031250 23.251953 41.123051 15.162673 -2.001953 1.992188 0.000000 81.630859 -35.488285 -0.097656 42.460938 1.914062 -1.650391 -31.181641 -52.441406 29.736328 34.076385 7.851050 4.380305 5.782049 -5.316014 -0.538754 32.194176 3.825934 7.283620 -20.172422 -4.061366 -14.695135 28.454126 4.476954 2.332549 -3.827915 -8.154805 -0.493087 
-12.466474 50.954185 33.294342 -1.064453 -4.238281 -11.210938 46.582031 3.007813 -11.591797 -31.513670 10.146484 -1.677967 51.054684 8.105469 2.470703 -73.613281 -5.341797 13.319403 1.992188 -2.001953 0.000341 -77.187500 -0.849609 2.031245 -48.837891 -2.099609 -1.992188 22.685547 41.542969 14.599607 -2.001953 1.992188 0.000000 84.746094 -32.666016 -2.646484 42.460938 1.914062 -1.650391 -30.351564 -51.679688 25.810547 27.507954 8.457154 5.169529 15.295033 -5.184751 -1.359646 35.777195 6.209646 8.128059 -15.266385 -1.803822 -14.477144 24.402086 4.647783 2.020114 0.908764 -9.632334 -0.730126 
-13.611269 51.882248 36.251511 -0.722656 -4.404297 -11.748796 47.353516 -0.068359 -10.058606 -31.689455 10.498047 -1.728516 51.054684 8.105469 2.470703 -74.687500 -5.361328 9.442447 1.992188 -2.001953 0.000341 -79.833984 1.386719 3.769769 -45.664063 -2.080078 -1.826172 22.177734 42.412109 14.567137 -2.001953 1.992188 0.000000 86.679688 -29.453125 -2.885660 43.164063 1.904297 -1.670246 -29.355467 -50.458984 22.248329 17.435799 9.304730 5.844351 29.762465 -4.857834 -2.581209 32.823837 6.785185 6.691326 -9.682392 -0.564796 -14.512097 20.517183 4.892706 1.423835 0.923772 -8.130064 -0.680851 
-14.750274 52.628475 39.205887 -0.722656 -3.515625 -12.285756 48.125000 -3.925782 -8.496763 -31.689451 10.673829 -1.912253 51.054684 8.105469 2.470703 -75.419922 -5.595703 5.263672 1.992188 -2.001953 0.000341 -81.806641 3.886719 6.015625 -42.500000 -2.148437 -1.689453 21.171873 43.437500 14.443358 -2.001953 1.992188 0.000000 85.742188 -26.962891 0.214844 44.042969 1.884766 -1.709306 -28.681637 -48.427734 19.914568 6.042198 9.255368 6.222774 44.044075 -4.011479 -3.286975 27.007750 6.643869 3.803671 -2.800908 -0.350384 -15.688745 13.837205 5.409901 1.074463 0.782931 -5.774967 -1.219271 
-15.880141 53.028671 42.153561 -0.722656 -1.582031 -12.842067 48.564453 -7.773438 -6.524759 -31.337891 10.488281 -1.845703 51.054684 8.105469 2.470703 -75.869141 -6.181641 1.532151 1.992188 -2.001953 0.000341 -83.496094 7.304688 6.553977 -39.335938 -2.226563 -1.542589 20.371094 44.541016 13.991227 -2.001953 1.992188 0.000000 83.271484 -24.609375 5.191247 45.624996 1.845703 -1.777344 -28.310549 -46.445313 17.646484 -2.635160 9.435597 6.593616 52.395702 -3.685197 -4.008897 21.505636 6.764523 2.062294 4.181256 -0.818391 -16.890276 6.825438 5.318792 0.772404 0.439949 -3.266385 -1.516386 
